# xmcd
#
# Track frame offsets:
#	150
#	23966
#	37182
#	62172
#	78701
#	100364
#	113439
#	129753
#	152075
#	172951
#	192813
#	208076
#	228741
#	244042
#	257995
#	276544
#
# Disc length: 3864 seconds
# Revision: 0
# Processed by: cddbd v1.5.2PL0 Copyright (c) Steve Scherf et al.
# Submitted via: dBpowerAMP V12.0
#
DISCID=e40f1610
DTITLE=Various Artist - Martin Freeman and Eddie Piller Present Soul on the Corner, Disc 1
DYEAR=1979
DGENRE=
TTITLE0=Bobby Womack - How Could You Break My Heart
TTITLE1=Willie Hutch - Lucky To Be Loved By You
TTITLE2=Tommy McGee - Now That I Have You
TTITLE3=Leroy Hutson - Positive Forces
TTITLE4=Laville - Thirty One
TTITLE5=Sergio Mendes and Brasil '77 - Love Music
TTITLE6=Pamoja - Oooh Baby
TTITLE7=Hot Chocolate - Brother Louie
TTITLE8=Goodie - You and I
TTITLE9=Patsy Gallant - It'll All Come Around
TTITLE10=Arnold Blair - Finally Made It Home
TTITLE11=The Reverend T.L. Barrett and the Youth for Christ Choir - Like a Ship (Without a Sail)
TTITLE12=Honey Cone - If I Can't Fly
TTITLE13=Bobby Dukes - Just To Be With You
TTITLE14=The Modulations - Can't Fight Your Love
TTITLE15=Jerry Butler - Never Give You Up
EXTD=
EXTT0=
EXTT1=
EXTT2=
EXTT3=
EXTT4=
EXTT5=
EXTT6=
EXTT7=
EXTT8=
EXTT9=
EXTT10=
EXTT11=
EXTT12=
EXTT13=
EXTT14=
EXTT15=
PLAYORDER=
